<svg width="512" height="512" viewBox="0 0 512 512" fill="none" xmlns="http://www.w3.org/2000/svg">
<g clip-path="url(#clip0_1_2)">
<path d="M469.282 141.482L261.557 29.5465C257.349 27.2794 255.246 26.1459 252.831 25.7166C250.614 25.3227 248.218 25.3308 246.004 25.74C243.592 26.1858 241.496 27.3337 237.304 29.6294L33.2427 141.399C29.0513 143.695 26.9555 144.843 26.1547 146.157C25.4197 147.363 25.4241 148.665 26.1674 149.866C26.9772 151.174 29.0808 152.308 33.2879 154.575L241.013 266.511C245.221 268.778 247.324 269.911 249.739 270.34C251.956 270.734 254.352 270.726 256.566 270.317C258.978 269.871 261.074 268.723 265.266 266.428L469.327 154.658C473.519 152.362 475.614 151.214 476.415 149.9C477.15 148.694 477.146 147.392 476.403 146.191C475.593 144.883 473.489 143.749 469.282 141.482Z" fill="url(#paint0_linear_1_2)"/>
<path d="M26.6108 146.782C26.2744 146.601 25.8571 146.743 25.7052 147.093C15.1005 171.562 -2.71834 201.182 24.0376 248.265C24.0966 248.369 24.1849 248.458 24.2892 248.516L253.107 375.451C253.662 375.76 254.283 375.153 254.015 374.577C233.107 329.597 246.606 293.203 255.77 270.66C255.895 270.352 255.765 270.006 255.472 269.849L26.6108 146.782Z" fill="url(#paint1_linear_1_2)"/>
<path d="M485.039 248.663C508.169 287.94 507.922 304.809 484.792 352.815L245.138 481.92C275.778 438.524 274.627 397.297 251.648 374.513L485.039 248.663Z" fill="url(#paint2_linear_1_2)"/>
<path d="M473.457 187.897L259.252 305.452L259.42 316.207L473.625 198.653L473.457 187.897Z" fill="url(#paint3_linear_1_2)"/>
<path d="M473.457 209.596L259.239 327.157L259.407 337.913L473.625 220.352L473.457 209.596Z" fill="url(#paint4_linear_1_2)"/>
<path d="M473.457 231.294L259.24 348.855L259.408 359.611L473.625 242.05L473.457 231.294Z" fill="url(#paint5_linear_1_2)"/>
<path d="M247.547 471.58L29.4493 352.054C26.8677 350.639 23.6282 351.256 21.96 353.48C20.0463 356.032 20.9501 359.649 23.9082 361.278L241.749 481.232C244.308 482.641 247.516 482.147 249.341 480.062C251.658 477.413 250.802 473.364 247.547 471.58Z" fill="url(#paint6_linear_1_2)"/>
<path d="M473.457 166.199L259.243 283.759L259.411 294.514L473.625 176.955L473.457 166.199Z" fill="url(#paint7_linear_1_2)"/>
<path d="M32.2802 267.122L246.495 384.682L246.327 395.437L32.1123 277.878L32.2802 267.122Z" fill="url(#paint8_linear_1_2)"/>
<path d="M32.2802 288.82L246.495 406.38L246.327 417.136L32.1123 299.576L32.2802 288.82Z" fill="url(#paint9_linear_1_2)"/>
<path d="M32.2802 310.519L246.495 428.078L246.327 438.834L32.1123 321.275L32.2802 310.519Z" fill="url(#paint10_linear_1_2)"/>
<path d="M32.2802 332.217L246.495 449.777L246.327 460.533L32.1123 342.973L32.2802 332.217Z" fill="url(#paint11_linear_1_2)"/>
<path d="M90.9721 258.531L70.9274 247.648L71.7402 238.734L76.053 241.076L78.1011 218.615L74.3916 216.601L75.209 207.636L93.3766 217.501C96.3263 219.102 98.8194 220.739 100.856 222.412C102.846 224.077 104.373 226.022 105.436 228.247C106.501 230.456 106.904 232.986 106.644 235.839C106.461 237.848 105.787 239.317 104.624 240.244C103.46 241.172 102.059 241.536 100.42 241.337C102.398 243.474 103.806 245.611 104.643 247.749C105.495 249.895 105.793 252.369 105.538 255.171C105.225 258.598 103.799 260.606 101.26 261.193C98.7365 261.772 95.3073 260.885 90.9721 258.531ZM89.5425 224.827L88.8752 232.145L90.1042 232.812C91.8025 233.734 93.0785 234.144 93.9323 234.04C94.8009 233.945 95.3029 233.155 95.4384 231.669C95.5323 230.639 95.3254 229.65 94.8178 228.701C94.3102 227.752 93.602 227.031 92.6933 226.538L89.5425 224.827ZM88.2702 238.78L87.4944 247.288L88.2988 247.725C90.1014 248.704 91.5131 249.169 92.5338 249.121C93.5693 249.08 94.1687 248.166 94.3319 246.376C94.5843 243.608 93.2208 241.414 90.2413 239.797C89.9135 239.619 89.585 239.449 89.2557 239.288C88.928 239.11 88.5995 238.941 88.2702 238.78ZM128.679 279.775C124.97 277.761 121.842 275.115 119.295 271.836C116.763 268.566 114.934 264.968 113.806 261.043C112.694 257.126 112.322 253.141 112.692 249.089C113.075 244.886 114.109 241.603 115.794 239.24C117.481 236.86 119.743 235.546 122.58 235.297C125.434 235.039 128.737 235.929 132.492 237.967C136.231 239.998 139.371 242.597 141.912 245.767C144.437 248.944 146.256 252.484 147.37 256.384C148.499 260.292 148.872 264.34 148.491 268.527C148.121 272.578 147.092 275.802 145.404 278.199C143.716 280.596 141.434 281.961 138.558 282.295C135.697 282.637 132.404 281.797 128.679 279.775ZM129.499 270.786C131.108 271.659 132.438 271.221 133.489 269.47C134.554 267.728 135.256 265.008 135.593 261.311C135.921 257.715 135.763 254.644 135.12 252.098C134.491 249.56 133.343 247.838 131.674 246.932C129.991 246.018 128.644 246.385 127.634 248.033C126.623 249.682 125.954 252.304 125.626 255.9C125.289 259.597 125.445 262.782 126.092 265.454C126.74 268.127 127.875 269.904 129.499 270.786ZM170.744 302.615C167.035 300.6 163.907 297.954 161.36 294.676C158.828 291.405 156.999 287.807 155.871 283.882C154.759 279.965 154.387 275.98 154.757 271.929C155.14 267.725 156.174 264.442 157.859 262.079C159.546 259.7 161.808 258.385 164.645 258.136C167.498 257.878 170.802 258.768 174.556 260.807C178.296 262.837 181.436 265.437 183.977 268.606C186.501 271.784 188.321 275.323 189.435 279.223C190.564 283.132 190.937 287.179 190.555 291.366C190.186 295.418 189.157 298.642 187.469 301.038C185.781 303.435 183.499 304.8 180.623 305.134C177.761 305.477 174.469 304.637 170.744 302.615ZM171.564 293.625C173.173 294.499 174.503 294.06 175.553 292.31C176.619 290.567 177.321 287.848 177.658 284.15C177.986 280.555 177.828 277.484 177.184 274.937C176.556 272.399 175.407 270.677 173.739 269.771C172.056 268.857 170.709 269.224 169.698 270.873C168.688 272.521 168.019 275.143 167.691 278.739C167.354 282.436 167.509 285.621 168.157 288.294C168.804 290.966 169.94 292.743 171.564 293.625Z" fill="white"/>
<path d="M323.962 414.615C320.655 416.411 317.567 417.252 314.698 417.139C311.801 417.058 309.376 415.886 307.423 413.621C305.486 411.348 304.288 407.909 303.83 403.304C303.447 399.458 303.718 395.622 304.64 391.796C305.566 388.004 307.131 384.55 309.333 381.434C311.549 378.293 314.355 375.801 317.752 373.956C319.48 373.018 321.075 372.641 322.538 372.824C324.014 372.983 325.127 373.597 325.877 374.665L326.388 370.094L333.338 366.32L334.981 382.843L327.853 386.714L327.77 385.879C327.557 383.736 326.943 382.221 325.928 381.332C324.928 380.434 323.571 380.451 321.858 381.381C320.711 382.004 319.703 383.076 318.833 384.597C317.981 386.127 317.36 387.859 316.972 389.795C316.581 391.713 316.472 393.533 316.643 395.254C316.98 398.644 317.989 400.897 319.67 402.011C321.35 403.108 323.486 402.953 326.078 401.546C327.91 400.551 329.574 399.283 331.069 397.742C332.58 396.193 333.802 394.747 334.736 393.404L335.276 393.618L336.348 404.397C334.578 406.656 332.668 408.6 330.616 410.229C328.564 411.859 326.346 413.321 323.962 414.615ZM360.664 394.688C356.955 396.702 353.654 397.543 350.764 397.21C347.888 396.869 345.585 395.506 343.856 393.12C342.142 390.725 341.084 387.504 340.681 383.456C340.263 379.255 340.599 375.215 341.689 371.334C342.777 367.436 344.578 363.907 347.09 360.747C349.615 357.563 352.755 354.951 356.509 352.913C360.248 350.883 363.551 349.987 366.417 350.227C369.27 350.492 371.552 351.812 373.265 354.19C374.992 356.559 376.064 359.835 376.48 364.018C376.882 368.067 376.54 372.049 375.454 375.963C374.367 379.878 372.558 383.474 370.026 386.751C367.509 390.02 364.388 392.666 360.664 394.688ZM359.771 385.705C361.38 384.832 362.499 383.06 363.128 380.389C363.772 377.71 363.911 374.523 363.543 370.829C363.186 367.236 362.486 364.62 361.444 362.981C360.416 361.335 359.068 360.964 357.4 361.87C355.717 362.784 354.569 364.509 353.958 367.046C353.347 369.583 353.22 372.647 353.577 376.24C353.944 379.935 354.663 382.656 355.731 384.405C356.8 386.153 358.147 386.587 359.771 385.705ZM401.181 371.916L384.756 380.833L383.871 371.927L387.446 369.985L385.214 347.542L381.638 349.483L380.752 340.576L397.222 331.634C403.687 328.124 408.802 327.134 412.566 328.664C416.342 330.169 418.561 334.236 419.22 340.866C419.862 347.326 418.652 353.229 415.587 358.573C412.523 363.917 407.721 368.365 401.181 371.916ZM396.655 341.33L398.887 363.773L400.295 363.009C401.964 362.103 403.279 360.882 404.241 359.346C405.201 357.794 405.85 356.028 406.187 354.049C406.524 352.07 406.585 350.001 406.371 347.842C406.042 344.536 405.208 342.153 403.87 340.693C402.531 339.233 400.595 339.19 398.063 340.565L396.655 341.33ZM440.527 341.165L441.413 350.071L425.726 358.589L424.84 349.682L428.371 347.765L432.262 321.997L427.591 324.533L426.705 315.626L448.851 303.602L459.902 330.645L463.41 328.74L464.296 337.647L444.296 348.506L443.41 339.599L446.315 338.022L444.926 334.242L436.859 338.622L436.282 343.47L440.527 341.165ZM443.245 328.701L439.427 317.786L437.39 331.88L443.245 328.701Z" fill="white"/>
<path d="M245.189 187.109L190.11 187.029C188.967 186.927 188.029 186.54 187.296 185.867C186.631 185.256 186.403 184.573 186.614 183.818L196.292 143.526C196.321 143.197 196.641 143.046 197.25 143.072L209.216 145.17C209.844 145.391 210.149 145.612 210.129 145.831L203.243 175.969L244.687 176.331C245.154 176.345 245.421 176.59 245.486 177.065L245.891 186.508C245.852 186.947 245.618 187.147 245.189 187.109ZM287.407 179.375L275.445 186.975C275.101 187.193 274.782 187.138 274.488 186.807L218.764 113.03C218.574 112.737 218.632 112.494 218.937 112.3L231.128 104.554C231.509 104.312 231.795 104.337 231.985 104.631L287.479 178.553C287.774 178.883 287.75 179.157 287.407 179.375ZM315.335 107.468L305.456 148.819C305.426 149.148 305.126 149.287 304.554 149.236L292.417 147.248C291.856 147.087 291.589 146.843 291.618 146.514L298.707 115.316L258.663 114.996C258.377 114.97 258.168 114.689 258.035 114.153L257.517 104.782C257.555 104.344 257.789 104.144 258.218 104.182L311.84 104.257C312.888 104.211 313.745 104.495 314.411 105.106C315.11 105.748 315.418 106.536 315.335 107.468Z" fill="white"/>
</g>
<defs>
<linearGradient id="paint0_linear_1_2" x1="365.419" y1="85.5143" x2="261.84" y2="277.733" gradientUnits="userSpaceOnUse">
<stop stop-color="#00D7A3"/>
<stop offset="0.9999" stop-color="#00FFC2"/>
<stop offset="1" stop-color="#7575CC" stop-opacity="0"/>
</linearGradient>
<linearGradient id="paint1_linear_1_2" x1="132.994" y1="146.445" x2="132.994" y2="376.448" gradientUnits="userSpaceOnUse">
<stop stop-color="#00FFC2"/>
<stop offset="1" stop-color="#00AC83"/>
</linearGradient>
<linearGradient id="paint2_linear_1_2" x1="373.701" y1="248.663" x2="373.701" y2="481.92" gradientUnits="userSpaceOnUse">
<stop offset="0.0001" stop-color="#3E51FF"/>
<stop offset="0.0002" stop-color="#045DE9"/>
<stop offset="1" stop-color="#09C6F9"/>
</linearGradient>
<linearGradient id="paint3_linear_1_2" x1="363.473" y1="247.526" x2="368.717" y2="256.961" gradientUnits="userSpaceOnUse">
<stop stop-color="#00FFC2"/>
<stop offset="1" stop-color="#00F3B9"/>
</linearGradient>
<linearGradient id="paint4_linear_1_2" x1="363.466" y1="269.228" x2="368.71" y2="278.663" gradientUnits="userSpaceOnUse">
<stop stop-color="#00FFC2"/>
<stop offset="1" stop-color="#00F3B9"/>
</linearGradient>
<linearGradient id="paint5_linear_1_2" x1="363.467" y1="290.926" x2="368.711" y2="300.361" gradientUnits="userSpaceOnUse">
<stop stop-color="#00FFC2"/>
<stop offset="1" stop-color="#00F3B9"/>
</linearGradient>
<linearGradient id="paint6_linear_1_2" x1="213.5" y1="331" x2="442.804" y2="409.203" gradientUnits="userSpaceOnUse">
<stop stop-color="#09C6F9"/>
<stop offset="1" stop-color="#045DE9"/>
</linearGradient>
<linearGradient id="paint7_linear_1_2" x1="363.468" y1="225.83" x2="368.712" y2="235.265" gradientUnits="userSpaceOnUse">
<stop stop-color="#00FFC2"/>
<stop offset="1" stop-color="#00F3B9"/>
</linearGradient>
<linearGradient id="paint8_linear_1_2" x1="57" y1="213.5" x2="450.238" y2="237.356" gradientUnits="userSpaceOnUse">
<stop stop-color="#09C6F9"/>
<stop offset="0.994792" stop-color="#045DE9"/>
</linearGradient>
<linearGradient id="paint9_linear_1_2" x1="139" y1="166.5" x2="374.937" y2="206.814" gradientUnits="userSpaceOnUse">
<stop stop-color="#09C6F9"/>
<stop offset="0.994792" stop-color="#045DE9"/>
</linearGradient>
<linearGradient id="paint10_linear_1_2" x1="127.5" y1="319" x2="362.485" y2="339.383" gradientUnits="userSpaceOnUse">
<stop stop-color="#09C6F9"/>
<stop offset="0.994792" stop-color="#045DE9"/>
</linearGradient>
<linearGradient id="paint11_linear_1_2" x1="183.5" y1="396" x2="320.459" y2="416.024" gradientUnits="userSpaceOnUse">
<stop stop-color="#09C6F9"/>
<stop offset="0.994792" stop-color="#045DE9"/>
</linearGradient>
<clipPath id="clip0_1_2">
<rect width="512" height="512" fill="white"/>
</clipPath>
</defs>
</svg>
